{"title":"Lone Survivor (2013) 720p Blu-Ray [English 5.1 _ Hindi 2.0]","uid":15492928,"size":1110345453,"categoryP":"video","categoryS":"movies","magnet":"?xt=urn:btih:88c5c240e4ee366ada0d7941437e65c089b6b0a9&amp;dn=Lone+Survivor+%282013%29+720p+Blu-Ray+%5BEnglish+5.1+_+Hindi+2.0%5D&amp;tr=udp%3A%2F%2Ftracker.leechers-paradise.org%3A6969&amp;tr=udp%3A%2F%2Fzer0day.ch%3A1337&amp;tr=udp%3A%2F%2Fopen.demonii.com%3A1337&amp;tr=udp%3A%2F%2Ftracker.coppersurfer.tk%3A6969&amp;tr=udp%3A%2F%2Fexodus.desync.com%3A6969","seeders":9,"leechers":5,"uploader":"amit3196","files":1,"time":1470393517,"description":"[img]http://www.wallpaperup.com/uploads/wallpapers/2014/01/13/226282/big_thumb_0b0864be0eec140eb9f31984c0b45c28.jpg[/img]\r\nComplete name                            : [b]Lone Survivor (2013) 720p Blu-Ray [English    5.1 _ Hindi 2.0]_amit3196[/b]\r\nFormat                                   : Matroska\r\nFormat version                           : Version 4 / Version 2\r\nFile size                                : 1.03 GiB\r\nDuration                                 : 2h 1mn\r\nOverall bit rate                         : 1 221 Kbps\r\nMovie name                               : Lone Survivor (2013) 720p Blu-Ray x264 [Dual-Audio] [English 5.1 + Hindi 2.0]\r\nEncoded date                             : UTC 2014-06-21 08:11:30\r\nWriting application                      : mkvmerge v6.5.0 ('Isn't she lovely') built on Oct 20 2013 12:50:05\r\nWriting library                          : libebml v1.3.0 + libmatroska v1.4.1\r\n\r\nVideo\r\nID                                       : 1\r\nFormat                                   : AVC\r\nFormat/Info                              : Advanced Video Codec\r\nFormat profile                           :   \r\nFormat settings, CABAC                   : Yes\r\nFormat settings, ReFrames                : 4 frames\r\nCodec ID                                 : V_MPEG4/ISO/AVC\r\nDuration                                 : 2h 1mn\r\nBit rate                                 : 900 Kbps\r\nWidth                                    : 1 280 pixels\r\nHeight                                   : 536 pixels\r\nDisplay aspect ratio                     : 2.40:1\r\nFrame rate mode                          : Constant\r\nFrame rate                               : 23.976 fps\r\nColor space                              : YUV\r\nChroma subsampling                       : 4:2:0\r\nBit depth                                : 8 bits\r\nScan type                                : Progressive\r\nBits/(Pixel*Frame)                       : 0.055\r\nStream size                              : 760 MiB (72%)\r\nTitle                                    : amit3196\r\nWriting library                          : x264 core 138 r2358 9e941d1\r\n\r\nLanguage                                 : English\r\nDefault                                  : Yes\r\nForced                                   : No\r\n\r\nAudio #1\r\nID                                       : 2\r\nFormat                                   : AC-3\r\nFormat/Info                              : Audio Coding 3\r\nMode extension                           : CM (complete main)\r\nFormat settings, Endianness              : Big\r\nCodec ID                                 : A_AC3\r\nDuration                                 : 2h 1mn\r\nBit rate mode                            : Constant\r\nBit rate                                 : 128 Kbps\r\nChannel(s)                               : 2 channels\r\nChannel positions                        : Front: L R\r\nSampling rate                            : 48.0 KHz\r\nBit depth                                : 16 bits\r\nCompression mode                         : Lossy\r\nDelay relative to video                  : 6ms\r\nStream size                              : 111 MiB (10%)\r\nTitle                                    : Mafiaking\r\nLanguage                                 : Hindi\r\nDefault                                  : Yes\r\nForced                                   : No\r\n\r\nAudio #2\r\nID                                       : 3\r\nFormat                                   : AC-3\r\nFormat/Info                              : Audio Coding 3\r\nMode extension                           : CM (complete main)\r\nFormat settings, Endianness              : Big\r\nCodec ID                                 : A_AC3\r\nDuration                                 : 2h 1mn\r\nBit rate mode                            : Constant\r\nBit rate                                 : 192 Kbps\r\nChannel(s)                               : 6 channels\r\nChannel positions                        : Front: L C R, Side: L R, LFE\r\nSampling rate                            : 48.0 KHz\r\nBit depth                                : 16 bits\r\nCompression mode                         : Lossy\r\nStream size                              : 167 MiB (16%)\r\nTitle                                    : Mafiaking\r\nLanguage                                 : English\r\nDefault                                  : No\r\nForced                                   : No\r\n\r\n\r\n\r\n[img]http://www.aceshowbiz.com/images/still/lone-survivor-image10.jpg[/img]\r\n\r\n[img]http://www.aceshowbiz.com/images/still/lone-survivor-image03.jpg[/img]\r\n\r\n[img]http://www.aceshowbiz.com/images/still/lone-survivor-image08.jpg[/img]\r\n\r\n[img]http://www.aceshowbiz.com/images/still/lone-survivor-image07.jpg[/img]\r\n\r\n[img]http://www.aceshowbiz.com/images/still/lone-survivor04.jpg[/img]","torrent":{"xt":"urn:btih:88c5c240e4ee366ada0d7941437e65c089b6b0a9","amp;dn":"Lone+Survivor+%282013%29+720p+Blu-Ray+%5BEnglish+5.1+_+Hindi+2.0%5D","amp;tr":["udp%3A%2F%2Ftracker.leechers-paradise.org%3A6969","udp%3A%2F%2Fzer0day.ch%3A1337","udp%3A%2F%2Fopen.demonii.com%3A1337","udp%3A%2F%2Ftracker.coppersurfer.tk%3A6969","udp%3A%2F%2Fexodus.desync.com%3A6969"],"infoHash":"88c5c240e4ee366ada0d7941437e65c089b6b0a9","infoHashBuffer":{"type":"Buffer","data":[136,197,194,64,228,238,54,106,218,13,121,65,67,126,101,192,137,182,176,169]},"announce":[],"urlList":[]}}